<svg width="350" height="90" viewBox="0 0 350 90" fill="none" xmlns="http://www.w3.org/2000/svg">
<g clip-path="url(#clip0_2_5)">
<path d="M128 64.5V60H123.5V55.5H119V42H123.5V37.5H128V33H150.5V37.5H132.5V42H128V55.5H132.5V60H141.5V51H137V46.5H150.5V64.5H128ZM159.5 64.5V60H155V46.5H159.5V42H182V46.5H186.5V55.5H164V60H182V64.5H159.5ZM164 51H177.5V46.5H164V51ZM204.5 64.5V46.5H195.5V42H204.5V33H213.5V42H222.5V46.5H213.5V64.5H204.5ZM227 64.5V33H258.5V37.5H236V46.5H254V51H236V64.5H227ZM276.5 37.5V33H285.5V37.5H276.5ZM267.5 64.5V60H276.5V46.5H272V42H285.5V60H294.5V64.5H267.5ZM312.5 64.5V46.5H303.5V42H312.5V33H321.5V42H330.5V46.5H321.5V64.5H312.5Z" fill="white"/>
<path d="M26.7881 8H38.6292H26.7881ZM26.7881 8.39319H38.6292H26.7881ZM26.7881 8.78638H38.6292H26.7881ZM26.7881 9.17957H38.6292H26.7881ZM26.7881 9.57276H38.6292H26.7881ZM26.7881 9.96595H38.6292H26.7881ZM26.7881 10.3591H38.6292H26.7881ZM26.7881 10.7523H38.6292H26.7881ZM26.7881 11.1455H38.6292H26.7881ZM26.7881 11.5387H38.6292H26.7881ZM22.8411 11.9319H26.7881H22.8411ZM34.6821 11.9319H38.6292H34.6821ZM22.8411 12.3251H26.7881H22.8411ZM34.6821 12.3251H38.6292H34.6821ZM22.8411 12.7183H26.7881H22.8411ZM34.6821 12.7183H38.6292H34.6821ZM22.8411 13.1115H26.7881H22.8411ZM34.6821 13.1115H38.6292H34.6821ZM22.8411 13.5047H26.7881H22.8411ZM34.6821 13.5047H38.6292H34.6821ZM22.8411 13.8978H26.7881H22.8411ZM34.6821 13.8978H38.6292H34.6821ZM22.8411 14.291H26.7881H22.8411ZM34.6821 14.291H38.6292H34.6821ZM22.8411 14.6842H26.7881H22.8411ZM34.6821 14.6842H38.6292H34.6821ZM22.8411 15.0774H26.7881H22.8411ZM34.6821 15.0774H38.6292H34.6821ZM22.8411 15.4706H26.7881H22.8411ZM34.6821 15.4706H38.6292H34.6821ZM18.894 15.8638H22.8411H18.894ZM38.6292 15.8638H42.5762H38.6292ZM18.894 16.257H22.8411H18.894ZM38.6292 16.257H42.5762H38.6292ZM18.894 16.6502H22.8411H18.894ZM38.6292 16.6502H42.5762H38.6292ZM18.894 17.0434H22.8411H18.894ZM38.6292 17.0434H42.5762H38.6292ZM18.894 17.4366H22.8411H18.894ZM38.6292 17.4366H42.5762H38.6292ZM18.894 17.8297H22.8411H18.894ZM38.6292 17.8297H42.5762H38.6292ZM18.894 18.2229H22.8411H18.894ZM38.6292 18.2229H42.5762H38.6292ZM18.894 18.6161H22.8411H18.894ZM38.6292 18.6161H42.5762H38.6292ZM18.894 19.0093H22.8411H18.894ZM38.6292 19.0093H42.5762H38.6292ZM18.894 19.4025H22.8411H18.894ZM38.6292 19.4025H42.5762H38.6292ZM14.947 19.7957H18.894H14.947ZM38.6292 19.7957H42.5762H38.6292ZM14.947 20.1889H18.894H14.947ZM38.6292 20.1889H42.5762H38.6292ZM14.947 20.5821H18.894H14.947ZM38.6292 20.5821H42.5762H38.6292ZM14.947 20.9753H18.894H14.947ZM38.6292 20.9753H42.5762H38.6292ZM14.947 21.3685H18.894H14.947ZM38.6292 21.3685H42.5762H38.6292ZM14.947 21.7616H18.894H14.947ZM38.6292 21.7616H42.5762H38.6292ZM14.947 22.1548H18.894H14.947ZM38.6292 22.1548H42.5762H38.6292ZM14.947 22.548H18.894H14.947ZM38.6292 22.548H42.5762H38.6292ZM14.947 22.9412H18.894H14.947ZM38.6292 22.9412H42.5762H38.6292ZM14.947 23.3344H18.894H14.947ZM38.6292 23.3344H42.5762H38.6292ZM11 23.7276H14.947H11ZM42.5762 23.7276H46.5232H42.5762ZM11 24.1208H14.947H11ZM42.5762 24.1208H46.5232H42.5762ZM11 24.514H14.947H11ZM42.5762 24.514H46.5232H42.5762ZM11 24.9072H14.947H11ZM42.5762 24.9072H46.5232H42.5762ZM11 25.3004H14.947H11ZM42.5762 25.3004H46.5232H42.5762ZM11 25.6935H14.947H11ZM42.5762 25.6935H46.5232H42.5762ZM11 26.0867H14.947H11ZM42.5762 26.0867H46.5232H42.5762ZM11 26.4799H14.947H11ZM42.5762 26.4799H46.5232H42.5762ZM11 26.8731H14.947H11ZM42.5762 26.8731H46.5232H42.5762ZM11 27.2663H14.947H11ZM42.5762 27.2663H46.5232H42.5762ZM11 27.6595H14.947H11ZM42.5762 27.6595H46.5232H42.5762ZM11 28.0527H14.947H11ZM42.5762 28.0527H46.5232H42.5762ZM11 28.4459H14.947H11ZM42.5762 28.4459H46.5232H42.5762ZM11 28.8391H14.947H11ZM42.5762 28.8391H46.5232H42.5762ZM11 29.2323H14.947H11ZM42.5762 29.2323H46.5232H42.5762ZM11 29.6254H14.947H11ZM42.5762 29.6254H46.5232H42.5762ZM11 30.0186H14.947H11ZM42.5762 30.0186H46.5232H42.5762ZM11 30.4118H14.947H11ZM42.5762 30.4118H46.5232H42.5762ZM11 30.805H14.947H11ZM42.5762 30.805H46.5232H42.5762ZM11 31.1982H14.947H11ZM42.5762 31.1982H46.5232H42.5762ZM30.7351 31.5914H34.6821H30.7351ZM42.5762 31.5914H46.5232H42.5762ZM62.3113 31.5914H74.1524H62.3113ZM30.7351 31.9846H34.6821H30.7351ZM42.5762 31.9846H46.5232H42.5762ZM62.3113 31.9846H74.1524H62.3113ZM30.7351 32.3778H34.6821H30.7351ZM42.5762 32.3778H46.5232H42.5762ZM62.3113 32.3778H74.1524H62.3113ZM30.7351 32.771H34.6821H30.7351ZM42.5762 32.771H46.5232H42.5762ZM62.3113 32.771H74.1524H62.3113ZM30.7351 33.1642H34.6821H30.7351ZM42.5762 33.1642H46.5232H42.5762ZM62.3113 33.1642H74.1524H62.3113ZM30.7351 33.5573H34.6821H30.7351ZM42.5762 33.5573H46.5232H42.5762ZM62.3113 33.5573H74.1524H62.3113ZM30.7351 33.9505H34.6821H30.7351ZM42.5762 33.9505H46.5232H42.5762ZM62.3113 33.9505H74.1524H62.3113ZM30.7351 34.3437H34.6821H30.7351ZM42.5762 34.3437H46.5232H42.5762ZM62.3113 34.3437H74.1524H62.3113ZM30.7351 34.7369H34.6821H30.7351ZM42.5762 34.7369H46.5232H42.5762ZM62.3113 34.7369H74.1524H62.3113ZM30.7351 35.1301H34.6821H30.7351ZM42.5762 35.1301H46.5232H42.5762ZM62.3113 35.1301H74.1524H62.3113ZM26.7881 35.5233H42.5762H26.7881ZM58.3643 35.5233H62.3113H58.3643ZM74.1524 35.5233H78.0994H74.1524ZM26.7881 35.9165H42.5762H26.7881ZM58.3643 35.9165H62.3113H58.3643ZM74.1524 35.9165H78.0994H74.1524ZM26.7881 36.3097H42.5762H26.7881ZM58.3643 36.3097H62.3113H58.3643ZM74.1524 36.3097H78.0994H74.1524ZM26.7881 36.7029H42.5762H26.7881ZM58.3643 36.7029H62.3113H58.3643ZM74.1524 36.7029H78.0994H74.1524ZM26.7881 37.0961H42.5762H26.7881ZM58.3643 37.0961H62.3113H58.3643ZM74.1524 37.0961H78.0994H74.1524ZM26.7881 37.4892H42.5762H26.7881ZM58.3643 37.4892H62.3113H58.3643ZM74.1524 37.4892H78.0994H74.1524ZM26.7881 37.8824H42.5762H26.7881ZM58.3643 37.8824H62.3113H58.3643ZM74.1524 37.8824H78.0994H74.1524ZM26.7881 38.2756H42.5762H26.7881ZM58.3643 38.2756H62.3113H58.3643ZM74.1524 38.2756H78.0994H74.1524ZM26.7881 38.6688H42.5762H26.7881ZM58.3643 38.6688H62.3113H58.3643ZM74.1524 38.6688H78.0994H74.1524ZM26.7881 39.062H42.5762H26.7881ZM58.3643 39.062H62.3113H58.3643ZM74.1524 39.062H78.0994H74.1524ZM58.3643 39.4552H62.3113H58.3643ZM78.0994 39.4552H82.0464H78.0994ZM58.3643 39.8484H62.3113H58.3643ZM78.0994 39.8484H82.0464H78.0994ZM58.3643 40.2416H62.3113H58.3643ZM78.0994 40.2416H82.0464H78.0994ZM58.3643 40.6348H62.3113H58.3643ZM78.0994 40.6348H82.0464H78.0994ZM58.3643 41.028H62.3113H58.3643ZM78.0994 41.028H82.0464H78.0994ZM58.3643 41.4211H62.3113H58.3643ZM78.0994 41.4211H82.0464H78.0994ZM58.3643 41.8143H62.3113H58.3643ZM78.0994 41.8143H82.0464H78.0994ZM58.3643 42.2075H62.3113H58.3643ZM78.0994 42.2075H82.0464H78.0994ZM58.3643 42.6007H62.3113H58.3643ZM78.0994 42.6007H82.0464H78.0994ZM58.3643 42.9939H62.3113H58.3643ZM78.0994 42.9939H82.0464H78.0994ZM46.5232 43.3871H58.3643H46.5232ZM78.0994 43.3871H82.0464H78.0994ZM46.5232 43.7803H58.3643H46.5232ZM78.0994 43.7803H82.0464H78.0994ZM46.5232 44.1735H58.3643H46.5232ZM78.0994 44.1735H82.0464H78.0994ZM46.5232 44.5667H58.3643H46.5232ZM78.0994 44.5667H82.0464H78.0994ZM46.5232 44.9599H58.3643H46.5232ZM78.0994 44.9599H82.0464H78.0994ZM46.5232 45.353H58.3643H46.5232ZM78.0994 45.353H82.0464H78.0994ZM46.5232 45.7462H58.3643H46.5232ZM78.0994 45.7462H82.0464H78.0994ZM46.5232 46.1394H58.3643H46.5232ZM78.0994 46.1394H82.0464H78.0994ZM46.5232 46.5326H58.3643H46.5232ZM78.0994 46.5326H82.0464H78.0994ZM46.5232 46.9258H58.3643H46.5232ZM78.0994 46.9258H82.0464H78.0994ZM11 47.319H14.947H11ZM30.7351 47.319H34.6821H30.7351ZM42.5762 47.319H46.5232H42.5762ZM78.0994 47.319H82.0464H78.0994ZM11 47.7122H14.947H11ZM30.7351 47.7122H34.6821H30.7351ZM42.5762 47.7122H46.5232H42.5762ZM78.0994 47.7122H82.0464H78.0994ZM11 48.1054H14.947H11ZM30.7351 48.1054H34.6821H30.7351ZM42.5762 48.1054H46.5232H42.5762ZM78.0994 48.1054H82.0464H78.0994ZM11 48.4986H14.947H11ZM30.7351 48.4986H34.6821H30.7351ZM42.5762 48.4986H46.5232H42.5762ZM78.0994 48.4986H82.0464H78.0994ZM11 48.8918H14.947H11ZM30.7351 48.8918H34.6821H30.7351ZM42.5762 48.8918H46.5232H42.5762ZM78.0994 48.8918H82.0464H78.0994ZM11 49.2849H14.947H11ZM30.7351 49.2849H34.6821H30.7351ZM42.5762 49.2849H46.5232H42.5762ZM78.0994 49.2849H82.0464H78.0994ZM11 49.6781H14.947H11ZM30.7351 49.6781H34.6821H30.7351ZM42.5762 49.6781H46.5232H42.5762ZM78.0994 49.6781H82.0464H78.0994ZM11 50.0713H14.947H11ZM30.7351 50.0713H34.6821H30.7351ZM42.5762 50.0713H46.5232H42.5762ZM78.0994 50.0713H82.0464H78.0994ZM11 50.4645H14.947H11ZM30.7351 50.4645H34.6821H30.7351ZM42.5762 50.4645H46.5232H42.5762ZM78.0994 50.4645H82.0464H78.0994ZM11 50.8577H14.947H11ZM30.7351 50.8577H34.6821H30.7351ZM42.5762 50.8577H46.5232H42.5762ZM78.0994 50.8577H82.0464H78.0994ZM11 51.2509H14.947H11ZM30.7351 51.2509H38.6292H30.7351ZM42.5762 51.2509H46.5232H42.5762ZM78.0994 51.2509H82.0464H78.0994ZM11 51.6441H14.947H11ZM30.7351 51.6441H38.6292H30.7351ZM42.5762 51.6441H46.5232H42.5762ZM78.0994 51.6441H82.0464H78.0994ZM11 52.0373H14.947H11ZM30.7351 52.0373H38.6292H30.7351ZM42.5762 52.0373H46.5232H42.5762ZM78.0994 52.0373H82.0464H78.0994ZM11 52.4305H14.947H11ZM30.7351 52.4305H38.6292H30.7351ZM42.5762 52.4305H46.5232H42.5762ZM78.0994 52.4305H82.0464H78.0994ZM11 52.8237H14.947H11ZM30.7351 52.8237H38.6292H30.7351ZM42.5762 52.8237H46.5232H42.5762ZM78.0994 52.8237H82.0464H78.0994ZM11 53.2168H14.947H11ZM30.7351 53.2168H38.6292H30.7351ZM42.5762 53.2168H46.5232H42.5762ZM78.0994 53.2168H82.0464H78.0994ZM11 53.61H14.947H11ZM30.7351 53.61H38.6292H30.7351ZM42.5762 53.61H46.5232H42.5762ZM78.0994 53.61H82.0464H78.0994ZM11 54.0032H14.947H11ZM30.7351 54.0032H38.6292H30.7351ZM42.5762 54.0032H46.5232H42.5762ZM78.0994 54.0032H82.0464H78.0994ZM11 54.3964H14.947H11ZM30.7351 54.3964H38.6292H30.7351ZM42.5762 54.3964H46.5232H42.5762ZM78.0994 54.3964H82.0464H78.0994ZM11 54.7896H14.947H11ZM30.7351 54.7896H38.6292H30.7351ZM42.5762 54.7896H46.5232H42.5762ZM78.0994 54.7896H82.0464H78.0994ZM11 55.1828H14.947H11ZM34.6821 55.1828H42.5762H34.6821ZM78.0994 55.1828H82.0464H78.0994ZM11 55.576H14.947H11ZM34.6821 55.576H42.5762H34.6821ZM78.0994 55.576H82.0464H78.0994ZM11 55.9692H14.947H11ZM34.6821 55.9692H42.5762H34.6821ZM78.0994 55.9692H82.0464H78.0994ZM11 56.3624H14.947H11ZM34.6821 56.3624H42.5762H34.6821ZM78.0994 56.3624H82.0464H78.0994ZM11 56.7556H14.947H11ZM34.6821 56.7556H42.5762H34.6821ZM78.0994 56.7556H82.0464H78.0994ZM11 57.1487H14.947H11ZM34.6821 57.1487H42.5762H34.6821ZM78.0994 57.1487H82.0464H78.0994ZM11 57.5419H14.947H11ZM34.6821 57.5419H42.5762H34.6821ZM78.0994 57.5419H82.0464H78.0994ZM11 57.9351H14.947H11ZM34.6821 57.9351H42.5762H34.6821ZM78.0994 57.9351H82.0464H78.0994ZM11 58.3283H14.947H11ZM34.6821 58.3283H42.5762H34.6821ZM78.0994 58.3283H82.0464H78.0994ZM11 58.7215H14.947H11ZM34.6821 58.7215H42.5762H34.6821ZM78.0994 58.7215H82.0464H78.0994ZM14.947 59.1147H18.894H14.947ZM38.6292 59.1147H42.5762H38.6292ZM78.0994 59.1147H82.0464H78.0994ZM14.947 59.5079H18.894H14.947ZM38.6292 59.5079H42.5762H38.6292ZM78.0994 59.5079H82.0464H78.0994ZM14.947 59.9011H18.894H14.947ZM38.6292 59.9011H42.5762H38.6292ZM78.0994 59.9011H82.0464H78.0994ZM14.947 60.2943H18.894H14.947ZM38.6292 60.2943H42.5762H38.6292ZM78.0994 60.2943H82.0464H78.0994ZM14.947 60.6875H18.894H14.947ZM38.6292 60.6875H42.5762H38.6292ZM78.0994 60.6875H82.0464H78.0994ZM14.947 61.0806H18.894H14.947ZM38.6292 61.0806H42.5762H38.6292ZM78.0994 61.0806H82.0464H78.0994ZM14.947 61.4738H18.894H14.947ZM38.6292 61.4738H42.5762H38.6292ZM78.0994 61.4738H82.0464H78.0994ZM14.947 61.867H18.894H14.947ZM38.6292 61.867H42.5762H38.6292ZM78.0994 61.867H82.0464H78.0994ZM14.947 62.2602H18.894H14.947ZM38.6292 62.2602H42.5762H38.6292ZM78.0994 62.2602H82.0464H78.0994ZM14.947 62.6534H18.894H14.947ZM38.6292 62.6534H42.5762H38.6292ZM78.0994 62.6534H82.0464H78.0994ZM14.947 63.0466H18.894H14.947ZM74.1524 63.0466H78.0994H74.1524ZM14.947 63.4398H18.894H14.947ZM74.1524 63.4398H78.0994H74.1524ZM14.947 63.833H18.894H14.947ZM74.1524 63.833H78.0994H74.1524ZM14.947 64.2262H18.894H14.947ZM74.1524 64.2262H78.0994H74.1524ZM14.947 64.6194H18.894H14.947ZM74.1524 64.6194H78.0994H74.1524ZM14.947 65.0125H18.894H14.947ZM74.1524 65.0125H78.0994H74.1524ZM14.947 65.4057H18.894H14.947ZM74.1524 65.4057H78.0994H74.1524ZM14.947 65.7989H18.894H14.947ZM74.1524 65.7989H78.0994H74.1524ZM14.947 66.1921H18.894H14.947ZM74.1524 66.1921H78.0994H74.1524ZM14.947 66.5853H18.894H14.947ZM74.1524 66.5853H78.0994H74.1524ZM18.894 66.9785H22.8411H18.894ZM70.2054 66.9785H74.1524H70.2054ZM18.894 67.3717H22.8411H18.894ZM70.2054 67.3717H74.1524H70.2054ZM18.894 67.7649H22.8411H18.894ZM70.2054 67.7649H74.1524H70.2054ZM18.894 68.1581H22.8411H18.894ZM70.2054 68.1581H74.1524H70.2054ZM18.894 68.5513H22.8411H18.894ZM70.2054 68.5513H74.1524H70.2054ZM18.894 68.9444H22.8411H18.894ZM70.2054 68.9444H74.1524H70.2054ZM18.894 69.3376H22.8411H18.894ZM70.2054 69.3376H74.1524H70.2054ZM18.894 69.7308H22.8411H18.894ZM70.2054 69.7308H74.1524H70.2054ZM18.894 70.124H22.8411H18.894ZM70.2054 70.124H74.1524H70.2054ZM18.894 70.5172H22.8411H18.894ZM70.2054 70.5172H74.1524H70.2054ZM18.894 70.9104H26.7881H18.894ZM62.3113 70.9104H70.2054H62.3113ZM18.894 71.3036H26.7881H18.894ZM62.3113 71.3036H70.2054H62.3113ZM18.894 71.6968H26.7881H18.894ZM62.3113 71.6968H70.2054H62.3113ZM18.894 72.09H26.7881H18.894ZM62.3113 72.09H70.2054H62.3113ZM18.894 72.4832H26.7881H18.894ZM62.3113 72.4832H70.2054H62.3113ZM18.894 72.8763H26.7881H18.894ZM62.3113 72.8763H70.2054H62.3113ZM18.894 73.2695H26.7881H18.894ZM62.3113 73.2695H70.2054H62.3113ZM18.894 73.6627H26.7881H18.894ZM62.3113 73.6627H70.2054H62.3113ZM18.894 74.0559H26.7881H18.894ZM62.3113 74.0559H70.2054H62.3113ZM18.894 74.4491H26.7881H18.894ZM62.3113 74.4491H70.2054H62.3113ZM22.8411 74.8423H30.7351H22.8411ZM54.4173 74.8423H62.3113H54.4173ZM22.8411 75.2355H30.7351H22.8411ZM54.4173 75.2355H62.3113H54.4173ZM22.8411 75.6287H30.7351H22.8411ZM54.4173 75.6287H62.3113H54.4173ZM22.8411 76.0219H30.7351H22.8411ZM54.4173 76.0219H62.3113H54.4173ZM22.8411 76.4151H30.7351H22.8411ZM54.4173 76.4151H62.3113H54.4173ZM22.8411 76.8082H30.7351H22.8411ZM54.4173 76.8082H62.3113H54.4173ZM22.8411 77.2014H30.7351H22.8411ZM54.4173 77.2014H62.3113H54.4173ZM22.8411 77.5946H30.7351H22.8411ZM54.4173 77.5946H62.3113H54.4173ZM22.8411 77.9878H30.7351H22.8411ZM54.4173 77.9878H62.3113H54.4173ZM22.8411 78.381H30.7351H22.8411ZM54.4173 78.381H62.3113H54.4173ZM26.7881 78.7742H54.4173H26.7881ZM26.7881 79.1674H54.4173H26.7881ZM26.7881 79.5606H54.4173H26.7881ZM26.7881 79.9538H54.4173H26.7881ZM26.7881 80.347H54.4173H26.7881ZM26.7881 80.7401H54.4173H26.7881ZM26.7881 81.1333H54.4173H26.7881ZM26.7881 81.5265H54.4173H26.7881ZM26.7881 81.9197H54.4173H26.7881ZM26.7881 82.3129H54.4173Z" fill="black"/>
<path d="M26.7881 82.3129H54.4173M26.7881 8H38.6292H26.7881ZM26.7881 8.39319H38.6292H26.7881ZM26.7881 8.78638H38.6292H26.7881ZM26.7881 9.17957H38.6292H26.7881ZM26.7881 9.57276H38.6292H26.7881ZM26.7881 9.96595H38.6292H26.7881ZM26.7881 10.3591H38.6292H26.7881ZM26.7881 10.7523H38.6292H26.7881ZM26.7881 11.1455H38.6292H26.7881ZM26.7881 11.5387H38.6292H26.7881ZM22.8411 11.9319H26.7881H22.8411ZM34.6821 11.9319H38.6292H34.6821ZM22.8411 12.3251H26.7881H22.8411ZM34.6821 12.3251H38.6292H34.6821ZM22.8411 12.7183H26.7881H22.8411ZM34.6821 12.7183H38.6292H34.6821ZM22.8411 13.1115H26.7881H22.8411ZM34.6821 13.1115H38.6292H34.6821ZM22.8411 13.5047H26.7881H22.8411ZM34.6821 13.5047H38.6292H34.6821ZM22.8411 13.8978H26.7881H22.8411ZM34.6821 13.8978H38.6292H34.6821ZM22.8411 14.291H26.7881H22.8411ZM34.6821 14.291H38.6292H34.6821ZM22.8411 14.6842H26.7881H22.8411ZM34.6821 14.6842H38.6292H34.6821ZM22.8411 15.0774H26.7881H22.8411ZM34.6821 15.0774H38.6292H34.6821ZM22.8411 15.4706H26.7881H22.8411ZM34.6821 15.4706H38.6292H34.6821ZM18.894 15.8638H22.8411H18.894ZM38.6292 15.8638H42.5762H38.6292ZM18.894 16.257H22.8411H18.894ZM38.6292 16.257H42.5762H38.6292ZM18.894 16.6502H22.8411H18.894ZM38.6292 16.6502H42.5762H38.6292ZM18.894 17.0434H22.8411H18.894ZM38.6292 17.0434H42.5762H38.6292ZM18.894 17.4366H22.8411H18.894ZM38.6292 17.4366H42.5762H38.6292ZM18.894 17.8297H22.8411H18.894ZM38.6292 17.8297H42.5762H38.6292ZM18.894 18.2229H22.8411H18.894ZM38.6292 18.2229H42.5762H38.6292ZM18.894 18.6161H22.8411H18.894ZM38.6292 18.6161H42.5762H38.6292ZM18.894 19.0093H22.8411H18.894ZM38.6292 19.0093H42.5762H38.6292ZM18.894 19.4025H22.8411H18.894ZM38.6292 19.4025H42.5762H38.6292ZM14.947 19.7957H18.894H14.947ZM38.6292 19.7957H42.5762H38.6292ZM14.947 20.1889H18.894H14.947ZM38.6292 20.1889H42.5762H38.6292ZM14.947 20.5821H18.894H14.947ZM38.6292 20.5821H42.5762H38.6292ZM14.947 20.9753H18.894H14.947ZM38.6292 20.9753H42.5762H38.6292ZM14.947 21.3685H18.894H14.947ZM38.6292 21.3685H42.5762H38.6292ZM14.947 21.7616H18.894H14.947ZM38.6292 21.7616H42.5762H38.6292ZM14.947 22.1548H18.894H14.947ZM38.6292 22.1548H42.5762H38.6292ZM14.947 22.548H18.894H14.947ZM38.6292 22.548H42.5762H38.6292ZM14.947 22.9412H18.894H14.947ZM38.6292 22.9412H42.5762H38.6292ZM14.947 23.3344H18.894H14.947ZM38.6292 23.3344H42.5762H38.6292ZM11 23.7276H14.947H11ZM42.5762 23.7276H46.5232H42.5762ZM11 24.1208H14.947H11ZM42.5762 24.1208H46.5232H42.5762ZM11 24.514H14.947H11ZM42.5762 24.514H46.5232H42.5762ZM11 24.9072H14.947H11ZM42.5762 24.9072H46.5232H42.5762ZM11 25.3004H14.947H11ZM42.5762 25.3004H46.5232H42.5762ZM11 25.6935H14.947H11ZM42.5762 25.6935H46.5232H42.5762ZM11 26.0867H14.947H11ZM42.5762 26.0867H46.5232H42.5762ZM11 26.4799H14.947H11ZM42.5762 26.4799H46.5232H42.5762ZM11 26.8731H14.947H11ZM42.5762 26.8731H46.5232H42.5762ZM11 27.2663H14.947H11ZM42.5762 27.2663H46.5232H42.5762ZM11 27.6595H14.947H11ZM42.5762 27.6595H46.5232H42.5762ZM11 28.0527H14.947H11ZM42.5762 28.0527H46.5232H42.5762ZM11 28.4459H14.947H11ZM42.5762 28.4459H46.5232H42.5762ZM11 28.8391H14.947H11ZM42.5762 28.8391H46.5232H42.5762ZM11 29.2323H14.947H11ZM42.5762 29.2323H46.5232H42.5762ZM11 29.6254H14.947H11ZM42.5762 29.6254H46.5232H42.5762ZM11 30.0186H14.947H11ZM42.5762 30.0186H46.5232H42.5762ZM11 30.4118H14.947H11ZM42.5762 30.4118H46.5232H42.5762ZM11 30.805H14.947H11ZM42.5762 30.805H46.5232H42.5762ZM11 31.1982H14.947H11ZM42.5762 31.1982H46.5232H42.5762ZM30.7351 31.5914H34.6821H30.7351ZM42.5762 31.5914H46.5232H42.5762ZM62.3113 31.5914H74.1524H62.3113ZM30.7351 31.9846H34.6821H30.7351ZM42.5762 31.9846H46.5232H42.5762ZM62.3113 31.9846H74.1524H62.3113ZM30.7351 32.3778H34.6821H30.7351ZM42.5762 32.3778H46.5232H42.5762ZM62.3113 32.3778H74.1524H62.3113ZM30.7351 32.771H34.6821H30.7351ZM42.5762 32.771H46.5232H42.5762ZM62.3113 32.771H74.1524H62.3113ZM30.7351 33.1642H34.6821H30.7351ZM42.5762 33.1642H46.5232H42.5762ZM62.3113 33.1642H74.1524H62.3113ZM30.7351 33.5573H34.6821H30.7351ZM42.5762 33.5573H46.5232H42.5762ZM62.3113 33.5573H74.1524H62.3113ZM30.7351 33.9505H34.6821H30.7351ZM42.5762 33.9505H46.5232H42.5762ZM62.3113 33.9505H74.1524H62.3113ZM30.7351 34.3437H34.6821H30.7351ZM42.5762 34.3437H46.5232H42.5762ZM62.3113 34.3437H74.1524H62.3113ZM30.7351 34.7369H34.6821H30.7351ZM42.5762 34.7369H46.5232H42.5762ZM62.3113 34.7369H74.1524H62.3113ZM30.7351 35.1301H34.6821H30.7351ZM42.5762 35.1301H46.5232H42.5762ZM62.3113 35.1301H74.1524H62.3113ZM26.7881 35.5233H42.5762H26.7881ZM58.3643 35.5233H62.3113H58.3643ZM74.1524 35.5233H78.0994H74.1524ZM26.7881 35.9165H42.5762H26.7881ZM58.3643 35.9165H62.3113H58.3643ZM74.1524 35.9165H78.0994H74.1524ZM26.7881 36.3097H42.5762H26.7881ZM58.3643 36.3097H62.3113H58.3643ZM74.1524 36.3097H78.0994H74.1524ZM26.7881 36.7029H42.5762H26.7881ZM58.3643 36.7029H62.3113H58.3643ZM74.1524 36.7029H78.0994H74.1524ZM26.7881 37.0961H42.5762H26.7881ZM58.3643 37.0961H62.3113H58.3643ZM74.1524 37.0961H78.0994H74.1524ZM26.7881 37.4892H42.5762H26.7881ZM58.3643 37.4892H62.3113H58.3643ZM74.1524 37.4892H78.0994H74.1524ZM26.7881 37.8824H42.5762H26.7881ZM58.3643 37.8824H62.3113H58.3643ZM74.1524 37.8824H78.0994H74.1524ZM26.7881 38.2756H42.5762H26.7881ZM58.3643 38.2756H62.3113H58.3643ZM74.1524 38.2756H78.0994H74.1524ZM26.7881 38.6688H42.5762H26.7881ZM58.3643 38.6688H62.3113H58.3643ZM74.1524 38.6688H78.0994H74.1524ZM26.7881 39.062H42.5762H26.7881ZM58.3643 39.062H62.3113H58.3643ZM74.1524 39.062H78.0994H74.1524ZM58.3643 39.4552H62.3113H58.3643ZM78.0994 39.4552H82.0464H78.0994ZM58.3643 39.8484H62.3113H58.3643ZM78.0994 39.8484H82.0464H78.0994ZM58.3643 40.2416H62.3113H58.3643ZM78.0994 40.2416H82.0464H78.0994ZM58.3643 40.6348H62.3113H58.3643ZM78.0994 40.6348H82.0464H78.0994ZM58.3643 41.028H62.3113H58.3643ZM78.0994 41.028H82.0464H78.0994ZM58.3643 41.4211H62.3113H58.3643ZM78.0994 41.4211H82.0464H78.0994ZM58.3643 41.8143H62.3113H58.3643ZM78.0994 41.8143H82.0464H78.0994ZM58.3643 42.2075H62.3113H58.3643ZM78.0994 42.2075H82.0464H78.0994ZM58.3643 42.6007H62.3113H58.3643ZM78.0994 42.6007H82.0464H78.0994ZM58.3643 42.9939H62.3113H58.3643ZM78.0994 42.9939H82.0464H78.0994ZM46.5232 43.3871H58.3643H46.5232ZM78.0994 43.3871H82.0464H78.0994ZM46.5232 43.7803H58.3643H46.5232ZM78.0994 43.7803H82.0464H78.0994ZM46.5232 44.1735H58.3643H46.5232ZM78.0994 44.1735H82.0464H78.0994ZM46.5232 44.5667H58.3643H46.5232ZM78.0994 44.5667H82.0464H78.0994ZM46.5232 44.9599H58.3643H46.5232ZM78.0994 44.9599H82.0464H78.0994ZM46.5232 45.353H58.3643H46.5232ZM78.0994 45.353H82.0464H78.0994ZM46.5232 45.7462H58.3643H46.5232ZM78.0994 45.7462H82.0464H78.0994ZM46.5232 46.1394H58.3643H46.5232ZM78.0994 46.1394H82.0464H78.0994ZM46.5232 46.5326H58.3643H46.5232ZM78.0994 46.5326H82.0464H78.0994ZM46.5232 46.9258H58.3643H46.5232ZM78.0994 46.9258H82.0464H78.0994ZM11 47.319H14.947H11ZM30.7351 47.319H34.6821H30.7351ZM42.5762 47.319H46.5232H42.5762ZM78.0994 47.319H82.0464H78.0994ZM11 47.7122H14.947H11ZM30.7351 47.7122H34.6821H30.7351ZM42.5762 47.7122H46.5232H42.5762ZM78.0994 47.7122H82.0464H78.0994ZM11 48.1054H14.947H11ZM30.7351 48.1054H34.6821H30.7351ZM42.5762 48.1054H46.5232H42.5762ZM78.0994 48.1054H82.0464H78.0994ZM11 48.4986H14.947H11ZM30.7351 48.4986H34.6821H30.7351ZM42.5762 48.4986H46.5232H42.5762ZM78.0994 48.4986H82.0464H78.0994ZM11 48.8918H14.947H11ZM30.7351 48.8918H34.6821H30.7351ZM42.5762 48.8918H46.5232H42.5762ZM78.0994 48.8918H82.0464H78.0994ZM11 49.2849H14.947H11ZM30.7351 49.2849H34.6821H30.7351ZM42.5762 49.2849H46.5232H42.5762ZM78.0994 49.2849H82.0464H78.0994ZM11 49.6781H14.947H11ZM30.7351 49.6781H34.6821H30.7351ZM42.5762 49.6781H46.5232H42.5762ZM78.0994 49.6781H82.0464H78.0994ZM11 50.0713H14.947H11ZM30.7351 50.0713H34.6821H30.7351ZM42.5762 50.0713H46.5232H42.5762ZM78.0994 50.0713H82.0464H78.0994ZM11 50.4645H14.947H11ZM30.7351 50.4645H34.6821H30.7351ZM42.5762 50.4645H46.5232H42.5762ZM78.0994 50.4645H82.0464H78.0994ZM11 50.8577H14.947H11ZM30.7351 50.8577H34.6821H30.7351ZM42.5762 50.8577H46.5232H42.5762ZM78.0994 50.8577H82.0464H78.0994ZM11 51.2509H14.947H11ZM30.7351 51.2509H38.6292H30.7351ZM42.5762 51.2509H46.5232H42.5762ZM78.0994 51.2509H82.0464H78.0994ZM11 51.6441H14.947H11ZM30.7351 51.6441H38.6292H30.7351ZM42.5762 51.6441H46.5232H42.5762ZM78.0994 51.6441H82.0464H78.0994ZM11 52.0373H14.947H11ZM30.7351 52.0373H38.6292H30.7351ZM42.5762 52.0373H46.5232H42.5762ZM78.0994 52.0373H82.0464H78.0994ZM11 52.4305H14.947H11ZM30.7351 52.4305H38.6292H30.7351ZM42.5762 52.4305H46.5232H42.5762ZM78.0994 52.4305H82.0464H78.0994ZM11 52.8237H14.947H11ZM30.7351 52.8237H38.6292H30.7351ZM42.5762 52.8237H46.5232H42.5762ZM78.0994 52.8237H82.0464H78.0994ZM11 53.2168H14.947H11ZM30.7351 53.2168H38.6292H30.7351ZM42.5762 53.2168H46.5232H42.5762ZM78.0994 53.2168H82.0464H78.0994ZM11 53.61H14.947H11ZM30.7351 53.61H38.6292H30.7351ZM42.5762 53.61H46.5232H42.5762ZM78.0994 53.61H82.0464H78.0994ZM11 54.0032H14.947H11ZM30.7351 54.0032H38.6292H30.7351ZM42.5762 54.0032H46.5232H42.5762ZM78.0994 54.0032H82.0464H78.0994ZM11 54.3964H14.947H11ZM30.7351 54.3964H38.6292H30.7351ZM42.5762 54.3964H46.5232H42.5762ZM78.0994 54.3964H82.0464H78.0994ZM11 54.7896H14.947H11ZM30.7351 54.7896H38.6292H30.7351ZM42.5762 54.7896H46.5232H42.5762ZM78.0994 54.7896H82.0464H78.0994ZM11 55.1828H14.947H11ZM34.6821 55.1828H42.5762H34.6821ZM78.0994 55.1828H82.0464H78.0994ZM11 55.576H14.947H11ZM34.6821 55.576H42.5762H34.6821ZM78.0994 55.576H82.0464H78.0994ZM11 55.9692H14.947H11ZM34.6821 55.9692H42.5762H34.6821ZM78.0994 55.9692H82.0464H78.0994ZM11 56.3624H14.947H11ZM34.6821 56.3624H42.5762H34.6821ZM78.0994 56.3624H82.0464H78.0994ZM11 56.7556H14.947H11ZM34.6821 56.7556H42.5762H34.6821ZM78.0994 56.7556H82.0464H78.0994ZM11 57.1487H14.947H11ZM34.6821 57.1487H42.5762H34.6821ZM78.0994 57.1487H82.0464H78.0994ZM11 57.5419H14.947H11ZM34.6821 57.5419H42.5762H34.6821ZM78.0994 57.5419H82.0464H78.0994ZM11 57.9351H14.947H11ZM34.6821 57.9351H42.5762H34.6821ZM78.0994 57.9351H82.0464H78.0994ZM11 58.3283H14.947H11ZM34.6821 58.3283H42.5762H34.6821ZM78.0994 58.3283H82.0464H78.0994ZM11 58.7215H14.947H11ZM34.6821 58.7215H42.5762H34.6821ZM78.0994 58.7215H82.0464H78.0994ZM14.947 59.1147H18.894H14.947ZM38.6292 59.1147H42.5762H38.6292ZM78.0994 59.1147H82.0464H78.0994ZM14.947 59.5079H18.894H14.947ZM38.6292 59.5079H42.5762H38.6292ZM78.0994 59.5079H82.0464H78.0994ZM14.947 59.9011H18.894H14.947ZM38.6292 59.9011H42.5762H38.6292ZM78.0994 59.9011H82.0464H78.0994ZM14.947 60.2943H18.894H14.947ZM38.6292 60.2943H42.5762H38.6292ZM78.0994 60.2943H82.0464H78.0994ZM14.947 60.6875H18.894H14.947ZM38.6292 60.6875H42.5762H38.6292ZM78.0994 60.6875H82.0464H78.0994ZM14.947 61.0806H18.894H14.947ZM38.6292 61.0806H42.5762H38.6292ZM78.0994 61.0806H82.0464H78.0994ZM14.947 61.4738H18.894H14.947ZM38.6292 61.4738H42.5762H38.6292ZM78.0994 61.4738H82.0464H78.0994ZM14.947 61.867H18.894H14.947ZM38.6292 61.867H42.5762H38.6292ZM78.0994 61.867H82.0464H78.0994ZM14.947 62.2602H18.894H14.947ZM38.6292 62.2602H42.5762H38.6292ZM78.0994 62.2602H82.0464H78.0994ZM14.947 62.6534H18.894H14.947ZM38.6292 62.6534H42.5762H38.6292ZM78.0994 62.6534H82.0464H78.0994ZM14.947 63.0466H18.894H14.947ZM74.1524 63.0466H78.0994H74.1524ZM14.947 63.4398H18.894H14.947ZM74.1524 63.4398H78.0994H74.1524ZM14.947 63.833H18.894H14.947ZM74.1524 63.833H78.0994H74.1524ZM14.947 64.2262H18.894H14.947ZM74.1524 64.2262H78.0994H74.1524ZM14.947 64.6194H18.894H14.947ZM74.1524 64.6194H78.0994H74.1524ZM14.947 65.0125H18.894H14.947ZM74.1524 65.0125H78.0994H74.1524ZM14.947 65.4057H18.894H14.947ZM74.1524 65.4057H78.0994H74.1524ZM14.947 65.7989H18.894H14.947ZM74.1524 65.7989H78.0994H74.1524ZM14.947 66.1921H18.894H14.947ZM74.1524 66.1921H78.0994H74.1524ZM14.947 66.5853H18.894H14.947ZM74.1524 66.5853H78.0994H74.1524ZM18.894 66.9785H22.8411H18.894ZM70.2054 66.9785H74.1524H70.2054ZM18.894 67.3717H22.8411H18.894ZM70.2054 67.3717H74.1524H70.2054ZM18.894 67.7649H22.8411H18.894ZM70.2054 67.7649H74.1524H70.2054ZM18.894 68.1581H22.8411H18.894ZM70.2054 68.1581H74.1524H70.2054ZM18.894 68.5513H22.8411H18.894ZM70.2054 68.5513H74.1524H70.2054ZM18.894 68.9444H22.8411H18.894ZM70.2054 68.9444H74.1524H70.2054ZM18.894 69.3376H22.8411H18.894ZM70.2054 69.3376H74.1524H70.2054ZM18.894 69.7308H22.8411H18.894ZM70.2054 69.7308H74.1524H70.2054ZM18.894 70.124H22.8411H18.894ZM70.2054 70.124H74.1524H70.2054ZM18.894 70.5172H22.8411H18.894ZM70.2054 70.5172H74.1524H70.2054ZM18.894 70.9104H26.7881H18.894ZM62.3113 70.9104H70.2054H62.3113ZM18.894 71.3036H26.7881H18.894ZM62.3113 71.3036H70.2054H62.3113ZM18.894 71.6968H26.7881H18.894ZM62.3113 71.6968H70.2054H62.3113ZM18.894 72.09H26.7881H18.894ZM62.3113 72.09H70.2054H62.3113ZM18.894 72.4832H26.7881H18.894ZM62.3113 72.4832H70.2054H62.3113ZM18.894 72.8763H26.7881H18.894ZM62.3113 72.8763H70.2054H62.3113ZM18.894 73.2695H26.7881H18.894ZM62.3113 73.2695H70.2054H62.3113ZM18.894 73.6627H26.7881H18.894ZM62.3113 73.6627H70.2054H62.3113ZM18.894 74.0559H26.7881H18.894ZM62.3113 74.0559H70.2054H62.3113ZM18.894 74.4491H26.7881H18.894ZM62.3113 74.4491H70.2054H62.3113ZM22.8411 74.8423H30.7351H22.8411ZM54.4173 74.8423H62.3113H54.4173ZM22.8411 75.2355H30.7351H22.8411ZM54.4173 75.2355H62.3113H54.4173ZM22.8411 75.6287H30.7351H22.8411ZM54.4173 75.6287H62.3113H54.4173ZM22.8411 76.0219H30.7351H22.8411ZM54.4173 76.0219H62.3113H54.4173ZM22.8411 76.4151H30.7351H22.8411ZM54.4173 76.4151H62.3113H54.4173ZM22.8411 76.8082H30.7351H22.8411ZM54.4173 76.8082H62.3113H54.4173ZM22.8411 77.2014H30.7351H22.8411ZM54.4173 77.2014H62.3113H54.4173ZM22.8411 77.5946H30.7351H22.8411ZM54.4173 77.5946H62.3113H54.4173ZM22.8411 77.9878H30.7351H22.8411ZM54.4173 77.9878H62.3113H54.4173ZM22.8411 78.381H30.7351H22.8411ZM54.4173 78.381H62.3113H54.4173ZM26.7881 78.7742H54.4173H26.7881ZM26.7881 79.1674H54.4173H26.7881ZM26.7881 79.5606H54.4173H26.7881ZM26.7881 79.9538H54.4173H26.7881ZM26.7881 80.347H54.4173H26.7881ZM26.7881 80.7401H54.4173H26.7881ZM26.7881 81.1333H54.4173H26.7881ZM26.7881 81.5265H54.4173H26.7881ZM26.7881 81.9197H54.4173H26.7881Z" stroke="#CF8921"/>
<path d="M26.7881 11.9319H34.6822H26.7881ZM26.7881 12.3251H34.6822H26.7881ZM26.7881 12.7183H34.6822H26.7881ZM26.7881 13.1115H34.6822H26.7881ZM26.7881 13.5047H34.6822H26.7881ZM26.7881 13.8979H34.6822H26.7881ZM26.7881 14.2911H34.6822H26.7881ZM26.7881 14.6842H34.6822H26.7881ZM26.7881 15.0774H34.6822H26.7881ZM26.7881 15.4706H34.6822H26.7881ZM22.8411 15.8638H38.6292H22.8411ZM22.8411 16.257H38.6292H22.8411ZM22.8411 16.6502H38.6292H22.8411ZM22.8411 17.0434H38.6292H22.8411ZM22.8411 17.4366H38.6292H22.8411ZM22.8411 17.8298H38.6292H22.8411ZM22.8411 18.223H38.6292H22.8411ZM22.8411 18.6161H38.6292H22.8411ZM22.8411 19.0093H38.6292H22.8411ZM22.8411 19.4025H38.6292H22.8411ZM18.8941 19.7957H38.6292H18.8941ZM18.8941 20.1889H38.6292H18.8941ZM18.8941 20.5821H38.6292H18.8941ZM18.8941 20.9753H38.6292H18.8941ZM18.8941 21.3685H38.6292H18.8941ZM18.8941 21.7617H38.6292H18.8941ZM18.8941 22.1549H38.6292H18.8941ZM18.8941 22.548H38.6292H18.8941ZM18.8941 22.9412H38.6292H18.8941ZM18.8941 23.3344H38.6292H18.8941ZM14.947 23.7276H42.5762H14.947ZM14.947 24.1208H42.5762H14.947ZM14.947 24.514H42.5762H14.947ZM14.947 24.9072H42.5762H14.947ZM14.947 25.3004H42.5762H14.947ZM14.947 25.6936H42.5762H14.947ZM14.947 26.0868H42.5762H14.947ZM14.947 26.4799H42.5762H14.947ZM14.947 26.8731H42.5762H14.947ZM14.947 27.2663H42.5762H14.947ZM14.947 27.6595H42.5762H14.947ZM14.947 28.0527H42.5762H14.947ZM14.947 28.4459H42.5762H14.947ZM14.947 28.8391H42.5762H14.947ZM14.947 29.2323H42.5762H14.947ZM14.947 29.6255H42.5762H14.947ZM14.947 30.0187H42.5762H14.947ZM14.947 30.4118H42.5762H14.947ZM14.947 30.805H42.5762H14.947ZM14.947 31.1982H42.5762H14.947ZM18.8941 31.5914H30.7351H18.8941ZM34.6822 31.5914H42.5762H34.6822ZM18.8941 31.9846H30.7351H18.8941ZM34.6822 31.9846H42.5762H34.6822ZM18.8941 32.3778H30.7351H18.8941ZM34.6822 32.3778H42.5762H34.6822ZM18.8941 32.771H30.7351H18.8941ZM34.6822 32.771H42.5762H34.6822ZM18.8941 33.1642H30.7351H18.8941ZM34.6822 33.1642H42.5762H34.6822ZM18.8941 33.5574H30.7351H18.8941ZM34.6822 33.5574H42.5762H34.6822ZM18.8941 33.9506H30.7351H18.8941ZM34.6822 33.9506H42.5762H34.6822ZM18.8941 34.3437H30.7351H18.8941ZM34.6822 34.3437H42.5762H34.6822ZM18.8941 34.7369H30.7351H18.8941ZM34.6822 34.7369H42.5762H34.6822ZM18.8941 35.1301H30.7351H18.8941ZM34.6822 35.1301H42.5762H34.6822ZM62.3113 35.5233H74.1524H62.3113ZM62.3113 35.9165H74.1524H62.3113ZM62.3113 36.3097H74.1524H62.3113ZM62.3113 36.7029H74.1524H62.3113ZM62.3113 37.0961H74.1524H62.3113ZM62.3113 37.4893H74.1524H62.3113ZM62.3113 37.8825H74.1524H62.3113ZM62.3113 38.2756H74.1524H62.3113ZM62.3113 38.6688H74.1524H62.3113ZM62.3113 39.062H74.1524H62.3113ZM62.3113 39.4552H78.0994H62.3113ZM62.3113 39.8484H78.0994H62.3113ZM62.3113 40.2416H78.0994H62.3113ZM62.3113 40.6348H78.0994H62.3113ZM62.3113 41.028H78.0994H62.3113ZM62.3113 41.4212H78.0994H62.3113ZM62.3113 41.8144H78.0994H62.3113ZM62.3113 42.2075H78.0994H62.3113ZM62.3113 42.6007H78.0994H62.3113ZM62.3113 42.9939H78.0994H62.3113ZM62.3113 43.3871H78.0994H62.3113ZM62.3113 43.7803H78.0994H62.3113ZM62.3113 44.1735H78.0994H62.3113ZM62.3113 44.5667H78.0994H62.3113ZM62.3113 44.9599H78.0994H62.3113ZM62.3113 45.3531H78.0994H62.3113ZM62.3113 45.7463H78.0994H62.3113ZM62.3113 46.1394H78.0994H62.3113ZM62.3113 46.5326H78.0994H62.3113ZM62.3113 46.9258H78.0994H62.3113ZM14.947 47.319H18.8941H14.947ZM46.5232 47.319H58.3643H46.5232ZM62.3113 47.319H78.0994H62.3113ZM14.947 47.7122H18.8941H14.947ZM46.5232 47.7122H58.3643H46.5232ZM62.3113 47.7122H78.0994H62.3113ZM14.947 48.1054H18.8941H14.947ZM46.5232 48.1054H58.3643H46.5232ZM62.3113 48.1054H78.0994H62.3113ZM14.947 48.4986H18.8941H14.947ZM46.5232 48.4986H58.3643H46.5232ZM62.3113 48.4986H78.0994H62.3113ZM14.947 48.8918H18.8941H14.947ZM46.5232 48.8918H58.3643H46.5232ZM62.3113 48.8918H78.0994H62.3113ZM14.947 49.285H18.8941H14.947ZM46.5232 49.285H58.3643H46.5232ZM62.3113 49.285H78.0994H62.3113ZM14.947 49.6782H18.8941H14.947ZM46.5232 49.6782H58.3643H46.5232ZM62.3113 49.6782H78.0994H62.3113ZM14.947 50.0713H18.8941H14.947ZM46.5232 50.0713H58.3643H46.5232ZM62.3113 50.0713H78.0994H62.3113ZM14.947 50.4645H18.8941H14.947ZM46.5232 50.4645H58.3643H46.5232ZM62.3113 50.4645H78.0994H62.3113ZM14.947 50.8577H18.8941H14.947ZM46.5232 50.8577H58.3643H46.5232ZM62.3113 50.8577H78.0994H62.3113ZM14.947 51.2509H30.7351H14.947ZM46.5232 51.2509H78.0994H46.5232ZM14.947 51.6441H30.7351H14.947ZM46.5232 51.6441H78.0994H46.5232ZM14.947 52.0373H30.7351H14.947ZM46.5232 52.0373H78.0994H46.5232ZM14.947 52.4305H30.7351H14.947ZM46.5232 52.4305H78.0994H46.5232ZM14.947 52.8237H30.7351H14.947ZM46.5232 52.8237H78.0994H46.5232ZM14.947 53.2169H30.7351H14.947ZM46.5232 53.2169H78.0994H46.5232ZM14.947 53.6101H30.7351H14.947ZM46.5232 53.6101H78.0994H46.5232ZM14.947 54.0032H30.7351H14.947ZM46.5232 54.0032H78.0994H46.5232ZM14.947 54.3964H30.7351H14.947ZM46.5232 54.3964H78.0994H46.5232ZM14.947 54.7896H30.7351H14.947ZM46.5232 54.7896H78.0994H46.5232ZM14.947 55.1828H34.6822H14.947ZM42.5762 55.1828H78.0994H42.5762ZM14.947 55.576H34.6822H14.947ZM42.5762 55.576H78.0994H42.5762ZM14.947 55.9692H34.6822H14.947ZM42.5762 55.9692H78.0994H42.5762ZM14.947 56.3624H34.6822H14.947ZM42.5762 56.3624H78.0994H42.5762ZM14.947 56.7556H34.6822H14.947ZM42.5762 56.7556H78.0994H42.5762ZM14.947 57.1488H34.6822H14.947ZM42.5762 57.1488H78.0994H42.5762ZM14.947 57.542H34.6822H14.947ZM42.5762 57.542H78.0994H42.5762ZM14.947 57.9351H34.6822H14.947ZM42.5762 57.9351H78.0994H42.5762ZM14.947 58.3283H34.6822H14.947ZM42.5762 58.3283H78.0994H42.5762ZM14.947 58.7215H34.6822H14.947ZM42.5762 58.7215H78.0994H42.5762ZM18.8941 59.1147H38.6292H18.8941ZM42.5762 59.1147H78.0994H42.5762ZM18.8941 59.5079H38.6292H18.8941ZM42.5762 59.5079H78.0994H42.5762ZM18.8941 59.9011H38.6292H18.8941ZM42.5762 59.9011H78.0994H42.5762ZM18.8941 60.2943H38.6292H18.8941ZM42.5762 60.2943H78.0994H42.5762ZM18.8941 60.6875H38.6292H18.8941ZM42.5762 60.6875H78.0994H42.5762ZM18.8941 61.0807H38.6292H18.8941ZM42.5762 61.0807H78.0994H42.5762ZM18.8941 61.4739H38.6292H18.8941ZM42.5762 61.4739H78.0994H42.5762ZM18.8941 61.867H38.6292H18.8941ZM42.5762 61.867H78.0994H42.5762ZM18.8941 62.2602H38.6292H18.8941ZM42.5762 62.2602H78.0994H42.5762ZM18.8941 62.6534H38.6292H18.8941ZM42.5762 62.6534H78.0994H42.5762ZM18.8941 63.0466H74.1524H18.8941ZM18.8941 63.4398H74.1524H18.8941ZM18.8941 63.833H74.1524H18.8941ZM18.8941 64.2262H74.1524H18.8941ZM18.8941 64.6194H74.1524H18.8941ZM18.8941 65.0126H74.1524H18.8941ZM18.8941 65.4058H74.1524H18.8941ZM18.8941 65.7989H74.1524H18.8941ZM18.8941 66.1921H74.1524H18.8941ZM18.8941 66.5853H74.1524H18.8941ZM22.8411 66.9785H70.2054H22.8411ZM22.8411 67.3717H70.2054H22.8411ZM22.8411 67.7649H70.2054H22.8411ZM22.8411 68.1581H70.2054H22.8411ZM22.8411 68.5513H70.2054H22.8411ZM22.8411 68.9445H70.2054H22.8411ZM22.8411 69.3377H70.2054H22.8411ZM22.8411 69.7308H70.2054H22.8411ZM22.8411 70.124H70.2054H22.8411ZM22.8411 70.5172H70.2054H22.8411ZM26.7881 70.9104H62.3113H26.7881ZM26.7881 71.3036H62.3113H26.7881ZM26.7881 71.6968H62.3113H26.7881ZM26.7881 72.09H62.3113H26.7881ZM26.7881 72.4832H62.3113H26.7881ZM26.7881 72.8764H62.3113H26.7881ZM26.7881 73.2696H62.3113H26.7881ZM26.7881 73.6627H62.3113H26.7881ZM26.7881 74.0559H62.3113H26.7881ZM26.7881 74.4491H62.3113H26.7881ZM30.7351 74.8423H54.4173H30.7351ZM30.7351 75.2355H54.4173H30.7351ZM30.7351 75.6287H54.4173H30.7351ZM30.7351 76.0219H54.4173H30.7351ZM30.7351 76.4151H54.4173H30.7351ZM30.7351 76.8083H54.4173H30.7351ZM30.7351 77.2015H54.4173H30.7351ZM30.7351 77.5946H54.4173H30.7351ZM30.7351 77.9878H54.4173H30.7351ZM30.7351 78.381H54.4173Z" fill="black"/>
<path d="M30.7351 78.381H54.4173M26.7881 11.9319H34.6822H26.7881ZM26.7881 12.3251H34.6822H26.7881ZM26.7881 12.7183H34.6822H26.7881ZM26.7881 13.1115H34.6822H26.7881ZM26.7881 13.5047H34.6822H26.7881ZM26.7881 13.8979H34.6822H26.7881ZM26.7881 14.2911H34.6822H26.7881ZM26.7881 14.6842H34.6822H26.7881ZM26.7881 15.0774H34.6822H26.7881ZM26.7881 15.4706H34.6822H26.7881ZM22.8411 15.8638H38.6292H22.8411ZM22.8411 16.257H38.6292H22.8411ZM22.8411 16.6502H38.6292H22.8411ZM22.8411 17.0434H38.6292H22.8411ZM22.8411 17.4366H38.6292H22.8411ZM22.8411 17.8298H38.6292H22.8411ZM22.8411 18.223H38.6292H22.8411ZM22.8411 18.6161H38.6292H22.8411ZM22.8411 19.0093H38.6292H22.8411ZM22.8411 19.4025H38.6292H22.8411ZM18.8941 19.7957H38.6292H18.8941ZM18.8941 20.1889H38.6292H18.8941ZM18.8941 20.5821H38.6292H18.8941ZM18.8941 20.9753H38.6292H18.8941ZM18.8941 21.3685H38.6292H18.8941ZM18.8941 21.7617H38.6292H18.8941ZM18.8941 22.1549H38.6292H18.8941ZM18.8941 22.548H38.6292H18.8941ZM18.8941 22.9412H38.6292H18.8941ZM18.8941 23.3344H38.6292H18.8941ZM14.947 23.7276H42.5762H14.947ZM14.947 24.1208H42.5762H14.947ZM14.947 24.514H42.5762H14.947ZM14.947 24.9072H42.5762H14.947ZM14.947 25.3004H42.5762H14.947ZM14.947 25.6936H42.5762H14.947ZM14.947 26.0868H42.5762H14.947ZM14.947 26.4799H42.5762H14.947ZM14.947 26.8731H42.5762H14.947ZM14.947 27.2663H42.5762H14.947ZM14.947 27.6595H42.5762H14.947ZM14.947 28.0527H42.5762H14.947ZM14.947 28.4459H42.5762H14.947ZM14.947 28.8391H42.5762H14.947ZM14.947 29.2323H42.5762H14.947ZM14.947 29.6255H42.5762H14.947ZM14.947 30.0187H42.5762H14.947ZM14.947 30.4118H42.5762H14.947ZM14.947 30.805H42.5762H14.947ZM14.947 31.1982H42.5762H14.947ZM18.8941 31.5914H30.7351H18.8941ZM34.6822 31.5914H42.5762H34.6822ZM18.8941 31.9846H30.7351H18.8941ZM34.6822 31.9846H42.5762H34.6822ZM18.8941 32.3778H30.7351H18.8941ZM34.6822 32.3778H42.5762H34.6822ZM18.8941 32.771H30.7351H18.8941ZM34.6822 32.771H42.5762H34.6822ZM18.8941 33.1642H30.7351H18.8941ZM34.6822 33.1642H42.5762H34.6822ZM18.8941 33.5574H30.7351H18.8941ZM34.6822 33.5574H42.5762H34.6822ZM18.8941 33.9506H30.7351H18.8941ZM34.6822 33.9506H42.5762H34.6822ZM18.8941 34.3437H30.7351H18.8941ZM34.6822 34.3437H42.5762H34.6822ZM18.8941 34.7369H30.7351H18.8941ZM34.6822 34.7369H42.5762H34.6822ZM18.8941 35.1301H30.7351H18.8941ZM34.6822 35.1301H42.5762H34.6822ZM62.3113 35.5233H74.1524H62.3113ZM62.3113 35.9165H74.1524H62.3113ZM62.3113 36.3097H74.1524H62.3113ZM62.3113 36.7029H74.1524H62.3113ZM62.3113 37.0961H74.1524H62.3113ZM62.3113 37.4893H74.1524H62.3113ZM62.3113 37.8825H74.1524H62.3113ZM62.3113 38.2756H74.1524H62.3113ZM62.3113 38.6688H74.1524H62.3113ZM62.3113 39.062H74.1524H62.3113ZM62.3113 39.4552H78.0994H62.3113ZM62.3113 39.8484H78.0994H62.3113ZM62.3113 40.2416H78.0994H62.3113ZM62.3113 40.6348H78.0994H62.3113ZM62.3113 41.028H78.0994H62.3113ZM62.3113 41.4212H78.0994H62.3113ZM62.3113 41.8144H78.0994H62.3113ZM62.3113 42.2075H78.0994H62.3113ZM62.3113 42.6007H78.0994H62.3113ZM62.3113 42.9939H78.0994H62.3113ZM62.3113 43.3871H78.0994H62.3113ZM62.3113 43.7803H78.0994H62.3113ZM62.3113 44.1735H78.0994H62.3113ZM62.3113 44.5667H78.0994H62.3113ZM62.3113 44.9599H78.0994H62.3113ZM62.3113 45.3531H78.0994H62.3113ZM62.3113 45.7463H78.0994H62.3113ZM62.3113 46.1394H78.0994H62.3113ZM62.3113 46.5326H78.0994H62.3113ZM62.3113 46.9258H78.0994H62.3113ZM14.947 47.319H18.8941H14.947ZM46.5232 47.319H58.3643H46.5232ZM62.3113 47.319H78.0994H62.3113ZM14.947 47.7122H18.8941H14.947ZM46.5232 47.7122H58.3643H46.5232ZM62.3113 47.7122H78.0994H62.3113ZM14.947 48.1054H18.8941H14.947ZM46.5232 48.1054H58.3643H46.5232ZM62.3113 48.1054H78.0994H62.3113ZM14.947 48.4986H18.8941H14.947ZM46.5232 48.4986H58.3643H46.5232ZM62.3113 48.4986H78.0994H62.3113ZM14.947 48.8918H18.8941H14.947ZM46.5232 48.8918H58.3643H46.5232ZM62.3113 48.8918H78.0994H62.3113ZM14.947 49.285H18.8941H14.947ZM46.5232 49.285H58.3643H46.5232ZM62.3113 49.285H78.0994H62.3113ZM14.947 49.6782H18.8941H14.947ZM46.5232 49.6782H58.3643H46.5232ZM62.3113 49.6782H78.0994H62.3113ZM14.947 50.0713H18.8941H14.947ZM46.5232 50.0713H58.3643H46.5232ZM62.3113 50.0713H78.0994H62.3113ZM14.947 50.4645H18.8941H14.947ZM46.5232 50.4645H58.3643H46.5232ZM62.3113 50.4645H78.0994H62.3113ZM14.947 50.8577H18.8941H14.947ZM46.5232 50.8577H58.3643H46.5232ZM62.3113 50.8577H78.0994H62.3113ZM14.947 51.2509H30.7351H14.947ZM46.5232 51.2509H78.0994H46.5232ZM14.947 51.6441H30.7351H14.947ZM46.5232 51.6441H78.0994H46.5232ZM14.947 52.0373H30.7351H14.947ZM46.5232 52.0373H78.0994H46.5232ZM14.947 52.4305H30.7351H14.947ZM46.5232 52.4305H78.0994H46.5232ZM14.947 52.8237H30.7351H14.947ZM46.5232 52.8237H78.0994H46.5232ZM14.947 53.2169H30.7351H14.947ZM46.5232 53.2169H78.0994H46.5232ZM14.947 53.6101H30.7351H14.947ZM46.5232 53.6101H78.0994H46.5232ZM14.947 54.0032H30.7351H14.947ZM46.5232 54.0032H78.0994H46.5232ZM14.947 54.3964H30.7351H14.947ZM46.5232 54.3964H78.0994H46.5232ZM14.947 54.7896H30.7351H14.947ZM46.5232 54.7896H78.0994H46.5232ZM14.947 55.1828H34.6822H14.947ZM42.5762 55.1828H78.0994H42.5762ZM14.947 55.576H34.6822H14.947ZM42.5762 55.576H78.0994H42.5762ZM14.947 55.9692H34.6822H14.947ZM42.5762 55.9692H78.0994H42.5762ZM14.947 56.3624H34.6822H14.947ZM42.5762 56.3624H78.0994H42.5762ZM14.947 56.7556H34.6822H14.947ZM42.5762 56.7556H78.0994H42.5762ZM14.947 57.1488H34.6822H14.947ZM42.5762 57.1488H78.0994H42.5762ZM14.947 57.542H34.6822H14.947ZM42.5762 57.542H78.0994H42.5762ZM14.947 57.9351H34.6822H14.947ZM42.5762 57.9351H78.0994H42.5762ZM14.947 58.3283H34.6822H14.947ZM42.5762 58.3283H78.0994H42.5762ZM14.947 58.7215H34.6822H14.947ZM42.5762 58.7215H78.0994H42.5762ZM18.8941 59.1147H38.6292H18.8941ZM42.5762 59.1147H78.0994H42.5762ZM18.8941 59.5079H38.6292H18.8941ZM42.5762 59.5079H78.0994H42.5762ZM18.8941 59.9011H38.6292H18.8941ZM42.5762 59.9011H78.0994H42.5762ZM18.8941 60.2943H38.6292H18.8941ZM42.5762 60.2943H78.0994H42.5762ZM18.8941 60.6875H38.6292H18.8941ZM42.5762 60.6875H78.0994H42.5762ZM18.8941 61.0807H38.6292H18.8941ZM42.5762 61.0807H78.0994H42.5762ZM18.8941 61.4739H38.6292H18.8941ZM42.5762 61.4739H78.0994H42.5762ZM18.8941 61.867H38.6292H18.8941ZM42.5762 61.867H78.0994H42.5762ZM18.8941 62.2602H38.6292H18.8941ZM42.5762 62.2602H78.0994H42.5762ZM18.8941 62.6534H38.6292H18.8941ZM42.5762 62.6534H78.0994H42.5762ZM18.8941 63.0466H74.1524H18.8941ZM18.8941 63.4398H74.1524H18.8941ZM18.8941 63.833H74.1524H18.8941ZM18.8941 64.2262H74.1524H18.8941ZM18.8941 64.6194H74.1524H18.8941ZM18.8941 65.0126H74.1524H18.8941ZM18.8941 65.4058H74.1524H18.8941ZM18.8941 65.7989H74.1524H18.8941ZM18.8941 66.1921H74.1524H18.8941ZM18.8941 66.5853H74.1524H18.8941ZM22.8411 66.9785H70.2054H22.8411ZM22.8411 67.3717H70.2054H22.8411ZM22.8411 67.7649H70.2054H22.8411ZM22.8411 68.1581H70.2054H22.8411ZM22.8411 68.5513H70.2054H22.8411ZM22.8411 68.9445H70.2054H22.8411ZM22.8411 69.3377H70.2054H22.8411ZM22.8411 69.7308H70.2054H22.8411ZM22.8411 70.124H70.2054H22.8411ZM22.8411 70.5172H70.2054H22.8411ZM26.7881 70.9104H62.3113H26.7881ZM26.7881 71.3036H62.3113H26.7881ZM26.7881 71.6968H62.3113H26.7881ZM26.7881 72.09H62.3113H26.7881ZM26.7881 72.4832H62.3113H26.7881ZM26.7881 72.8764H62.3113H26.7881ZM26.7881 73.2696H62.3113H26.7881ZM26.7881 73.6627H62.3113H26.7881ZM26.7881 74.0559H62.3113H26.7881ZM26.7881 74.4491H62.3113H26.7881ZM30.7351 74.8423H54.4173H30.7351ZM30.7351 75.2355H54.4173H30.7351ZM30.7351 75.6287H54.4173H30.7351ZM30.7351 76.0219H54.4173H30.7351ZM30.7351 76.4151H54.4173H30.7351ZM30.7351 76.8083H54.4173H30.7351ZM30.7351 77.2015H54.4173H30.7351ZM30.7351 77.5946H54.4173H30.7351ZM30.7351 77.9878H54.4173H30.7351Z" stroke="#FFCF91"/>
<path d="M11 31.5914H18.894H11ZM11 31.9846H18.894H11ZM11 32.3778H18.894H11ZM11 32.771H18.894H11ZM11 33.1642H18.894H11ZM11 33.5574H18.894H11ZM11 33.9505H18.894H11ZM11 34.3437H18.894H11ZM11 34.7369H18.894H11ZM11 35.1301H18.894H11ZM11 35.5233H14.947H11ZM18.894 35.5233H26.7881H18.894ZM11 35.9165H14.947H11ZM18.894 35.9165H26.7881H18.894ZM11 36.3097H14.947H11ZM18.894 36.3097H26.7881H18.894ZM11 36.7029H14.947H11ZM18.894 36.7029H26.7881H18.894ZM11 37.0961H14.947H11ZM18.894 37.0961H26.7881H18.894ZM11 37.4893H14.947H11ZM18.894 37.4893H26.7881H18.894ZM11 37.8824H14.947H11ZM18.894 37.8824H26.7881H18.894ZM11 38.2756H14.947H11ZM18.894 38.2756H26.7881H18.894ZM11 38.6688H14.947H11ZM18.894 38.6688H26.7881H18.894ZM11 39.062H14.947H11ZM18.894 39.062H26.7881H18.894ZM11 39.4552H14.947H11ZM22.8411 39.4552H30.7351H22.8411ZM11 39.8484H14.947H11ZM22.8411 39.8484H30.7351H22.8411ZM11 40.2416H14.947H11ZM22.8411 40.2416H30.7351H22.8411ZM11 40.6348H14.947H11ZM22.8411 40.6348H30.7351H22.8411ZM11 41.028H14.947H11ZM22.8411 41.028H30.7351H22.8411ZM11 41.4212H14.947H11ZM22.8411 41.4212H30.7351H22.8411ZM11 41.8143H14.947H11ZM22.8411 41.8143H30.7351H22.8411ZM11 42.2075H14.947H11ZM22.8411 42.2075H30.7351H22.8411ZM11 42.6007H14.947H11ZM22.8411 42.6007H30.7351H22.8411ZM11 42.9939H14.947H11ZM22.8411 42.9939H30.7351H22.8411ZM11 43.3871H30.7351H11ZM11 43.7803H30.7351H11ZM11 44.1735H30.7351H11ZM11 44.5667H30.7351H11ZM11 44.9599H30.7351H11ZM11 45.3531H30.7351H11ZM11 45.7462H30.7351H11ZM11 46.1394H30.7351H11ZM11 46.5326H30.7351H11ZM11 46.9258H30.7351H11ZM18.894 47.319H30.7351H18.894ZM18.894 47.7122H30.7351H18.894ZM18.894 48.1054H30.7351H18.894ZM18.894 48.4986H30.7351H18.894ZM18.894 48.8918H30.7351H18.894ZM18.894 49.285H30.7351H18.894ZM18.894 49.6781H30.7351H18.894ZM18.894 50.0713H30.7351H18.894ZM18.894 50.4645H30.7351H18.894ZM18.894 50.8577H30.7351Z" fill="black"/>
<path d="M18.894 50.8577H30.7351M11 31.5914H18.894H11ZM11 31.9846H18.894H11ZM11 32.3778H18.894H11ZM11 32.771H18.894H11ZM11 33.1642H18.894H11ZM11 33.5574H18.894H11ZM11 33.9505H18.894H11ZM11 34.3437H18.894H11ZM11 34.7369H18.894H11ZM11 35.1301H18.894H11ZM11 35.5233H14.947H11ZM18.894 35.5233H26.7881H18.894ZM11 35.9165H14.947H11ZM18.894 35.9165H26.7881H18.894ZM11 36.3097H14.947H11ZM18.894 36.3097H26.7881H18.894ZM11 36.7029H14.947H11ZM18.894 36.7029H26.7881H18.894ZM11 37.0961H14.947H11ZM18.894 37.0961H26.7881H18.894ZM11 37.4893H14.947H11ZM18.894 37.4893H26.7881H18.894ZM11 37.8824H14.947H11ZM18.894 37.8824H26.7881H18.894ZM11 38.2756H14.947H11ZM18.894 38.2756H26.7881H18.894ZM11 38.6688H14.947H11ZM18.894 38.6688H26.7881H18.894ZM11 39.062H14.947H11ZM18.894 39.062H26.7881H18.894ZM11 39.4552H14.947H11ZM22.8411 39.4552H30.7351H22.8411ZM11 39.8484H14.947H11ZM22.8411 39.8484H30.7351H22.8411ZM11 40.2416H14.947H11ZM22.8411 40.2416H30.7351H22.8411ZM11 40.6348H14.947H11ZM22.8411 40.6348H30.7351H22.8411ZM11 41.028H14.947H11ZM22.8411 41.028H30.7351H22.8411ZM11 41.4212H14.947H11ZM22.8411 41.4212H30.7351H22.8411ZM11 41.8143H14.947H11ZM22.8411 41.8143H30.7351H22.8411ZM11 42.2075H14.947H11ZM22.8411 42.2075H30.7351H22.8411ZM11 42.6007H14.947H11ZM22.8411 42.6007H30.7351H22.8411ZM11 42.9939H14.947H11ZM22.8411 42.9939H30.7351H22.8411ZM11 43.3871H30.7351H11ZM11 43.7803H30.7351H11ZM11 44.1735H30.7351H11ZM11 44.5667H30.7351H11ZM11 44.9599H30.7351H11ZM11 45.3531H30.7351H11ZM11 45.7462H30.7351H11ZM11 46.1394H30.7351H11ZM11 46.5326H30.7351H11ZM11 46.9258H30.7351H11ZM18.894 47.319H30.7351H18.894ZM18.894 47.7122H30.7351H18.894ZM18.894 48.1054H30.7351H18.894ZM18.894 48.4986H30.7351H18.894ZM18.894 48.8918H30.7351H18.894ZM18.894 49.285H30.7351H18.894ZM18.894 49.6781H30.7351H18.894ZM18.894 50.0713H30.7351H18.894ZM18.894 50.4645H30.7351H18.894Z" stroke="#363636"/>
<path d="M14.947 35.5233H18.8941H14.947ZM14.947 35.9165H18.8941H14.947ZM14.947 36.3097H18.8941H14.947ZM14.947 36.7029H18.8941H14.947ZM14.947 37.0961H18.8941H14.947ZM14.947 37.4893H18.8941H14.947ZM14.947 37.8825H18.8941H14.947ZM14.947 38.2756H18.8941H14.947ZM14.947 38.6688H18.8941H14.947ZM14.947 39.062H18.8941H14.947ZM14.947 39.4552H22.8411H14.947ZM14.947 39.8484H22.8411H14.947ZM14.947 40.2416H22.8411H14.947ZM14.947 40.6348H22.8411H14.947ZM14.947 41.028H22.8411H14.947ZM14.947 41.4212H22.8411H14.947ZM14.947 41.8144H22.8411H14.947ZM14.947 42.2075H22.8411H14.947ZM14.947 42.6007H22.8411H14.947ZM14.947 42.9939H22.8411Z" fill="black"/>
<path d="M14.947 42.9939H22.8411M14.947 35.5233H18.8941H14.947ZM14.947 35.9165H18.8941H14.947ZM14.947 36.3097H18.8941H14.947ZM14.947 36.7029H18.8941H14.947ZM14.947 37.0961H18.8941H14.947ZM14.947 37.4893H18.8941H14.947ZM14.947 37.8825H18.8941H14.947ZM14.947 38.2756H18.8941H14.947ZM14.947 38.6688H18.8941H14.947ZM14.947 39.062H18.8941H14.947ZM14.947 39.4552H22.8411H14.947ZM14.947 39.8484H22.8411H14.947ZM14.947 40.2416H22.8411H14.947ZM14.947 40.6348H22.8411H14.947ZM14.947 41.028H22.8411H14.947ZM14.947 41.4212H22.8411H14.947ZM14.947 41.8144H22.8411H14.947ZM14.947 42.2075H22.8411H14.947ZM14.947 42.6007H22.8411H14.947Z" stroke="#707070"/>
<path d="M58.3643 43.3871H62.3113H58.3643ZM58.3643 43.7802H62.3113H58.3643ZM58.3643 44.1734H62.3113H58.3643ZM58.3643 44.5666H62.3113H58.3643ZM58.3643 44.9598H62.3113H58.3643ZM58.3643 45.353H62.3113H58.3643ZM58.3643 45.7462H62.3113H58.3643ZM58.3643 46.1394H62.3113H58.3643ZM58.3643 46.5326H62.3113H58.3643ZM58.3643 46.9258H62.3113H58.3643ZM58.3643 47.319H62.3113H58.3643ZM58.3643 47.7121H62.3113H58.3643ZM58.3643 48.1053H62.3113H58.3643ZM58.3643 48.4985H62.3113H58.3643ZM58.3643 48.8917H62.3113H58.3643ZM58.3643 49.2849H62.3113H58.3643ZM58.3643 49.6781H62.3113H58.3643ZM58.3643 50.0713H62.3113H58.3643ZM58.3643 50.4645H62.3113H58.3643ZM58.3643 50.8577H62.3113Z" fill="black"/>
<path d="M58.3643 50.8577H62.3113M58.3643 43.3871H62.3113H58.3643ZM58.3643 43.7802H62.3113H58.3643ZM58.3643 44.1734H62.3113H58.3643ZM58.3643 44.5666H62.3113H58.3643ZM58.3643 44.9598H62.3113H58.3643ZM58.3643 45.353H62.3113H58.3643ZM58.3643 45.7462H62.3113H58.3643ZM58.3643 46.1394H62.3113H58.3643ZM58.3643 46.5326H62.3113H58.3643ZM58.3643 46.9258H62.3113H58.3643ZM58.3643 47.319H62.3113H58.3643ZM58.3643 47.7121H62.3113H58.3643ZM58.3643 48.1053H62.3113H58.3643ZM58.3643 48.4985H62.3113H58.3643ZM58.3643 48.8917H62.3113H58.3643ZM58.3643 49.2849H62.3113H58.3643ZM58.3643 49.6781H62.3113H58.3643ZM58.3643 50.0713H62.3113H58.3643ZM58.3643 50.4645H62.3113H58.3643Z" stroke="#AB711B"/>
</g>
<defs>
<clipPath id="clip0_2_5">
<rect width="350" height="90" fill="white"/>
</clipPath>
</defs>
</svg>
